<svg width="123" height="123" viewBox="0 0 123 123" fill="none" xmlns="http://www.w3.org/2000/svg">
<path opacity="0.3" fill-rule="evenodd" clip-rule="evenodd" d="M28.6038 89.2379C29.4183 90.2101 30.2825 91.1548 31.1964 92.0687C32.1103 92.9825 33.055 93.8467 34.0272 94.6613L28.6038 89.2379ZM40.8299 99.3291L23.936 82.4352C23.1519 81.0166 22.4539 79.5631 21.842 78.0824L45.1826 101.423C43.702 100.811 42.2485 100.113 40.8299 99.3291ZM48.5455 102.651C49.5782 102.98 50.621 103.269 51.6713 103.518L19.7469 71.5938C19.9961 72.6441 20.2851 73.6868 20.6141 74.7196L48.5455 102.651ZM19.2 68.912L54.3531 104.065C55.225 104.214 56.1006 104.336 56.9785 104.432L18.8333 66.2865C18.9286 67.1645 19.0509 68.0401 19.2 68.912ZM18.6441 63.9625L59.3026 104.621C60.0762 104.663 60.8506 104.684 61.6251 104.685L18.5803 61.6399C18.5808 62.4144 18.6021 63.1889 18.6441 63.9625ZM18.6291 59.5538L63.7112 104.636C64.4145 104.603 65.117 104.552 65.8182 104.484L18.7808 57.4468C18.7131 58.148 18.6625 58.8506 18.6291 59.5538ZM19.0078 55.5389L67.7261 104.257C68.3743 104.165 69.0208 104.059 69.6651 103.938L19.3275 53.5999C19.2062 54.2442 19.0996 54.8907 19.0078 55.5389ZM19.6981 51.8356L71.4295 103.567C72.032 103.427 72.6322 103.274 73.2295 103.108L20.1568 50.0356C19.9908 50.6329 19.8379 51.233 19.6981 51.8356ZM20.6489 48.3928L74.8723 102.616C75.4354 102.435 75.9955 102.242 76.5523 102.037L21.2276 46.7128C21.0228 47.2695 20.8299 47.8297 20.6489 48.3928ZM21.8264 45.1766L78.0885 101.439C78.6164 101.221 79.1409 100.993 79.6616 100.753L22.512 43.6035C22.2725 44.1242 22.044 44.6487 21.8264 45.1766ZM23.2071 42.1637L81.1014 100.058C81.5972 99.8071 82.0891 99.5461 82.5768 99.2748L23.9903 40.6882C23.719 41.176 23.4579 41.6679 23.2071 42.1637ZM24.7743 39.3373L83.9278 98.4908C84.3936 98.209 84.8551 97.9176 85.3123 97.6166L25.6485 37.9528C25.3475 38.4099 25.0561 38.8715 24.7743 39.3373ZM26.516 36.6854L86.5796 96.749C87.017 96.438 87.4498 96.1178 87.8779 95.7886L27.4765 35.3872C27.1472 35.8153 26.8271 36.2481 26.516 36.6854ZM28.4238 34.1996L89.0655 94.8412C89.4755 94.5022 89.8807 94.1544 90.2808 93.7979L29.4672 32.9842C29.1106 33.3844 28.7628 33.7896 28.4238 34.1996ZM30.4916 31.8738L91.3913 92.7734C91.6337 92.5419 91.8741 92.307 92.1124 92.0687C92.2514 91.9296 92.3893 91.7899 92.526 91.6495L31.6156 30.7391C31.4751 30.8758 31.3354 31.0136 31.1964 31.1527C30.9581 31.391 30.7232 31.6314 30.4916 31.8738ZM32.7158 29.7043L93.5607 90.5493C93.9209 90.1528 94.2723 89.7513 94.6151 89.3449L33.9201 28.65C33.5137 28.9927 33.1122 29.3442 32.7158 29.7043ZM35.0972 27.6921L95.5729 88.1679C95.906 87.7436 96.2299 87.3146 96.5447 86.881L36.3841 26.7203C35.9505 27.0352 35.5214 27.3591 35.0972 27.6921ZM37.6405 25.8418L97.4233 85.6246C97.7282 85.1715 98.0236 84.7138 98.3094 84.252L39.0131 24.9557C38.5512 25.2415 38.0936 25.5369 37.6405 25.8418ZM40.3525 24.1601L99.1049 82.9126C99.3803 82.4291 99.6456 81.9414 99.9008 81.4498L41.8153 23.3643C41.3237 23.6195 40.836 23.8847 40.3525 24.1601ZM43.2428 22.6568L100.608 80.0223C100.852 79.5062 101.085 78.9863 101.307 78.4629L44.8022 21.9576C44.2788 22.1798 43.7588 22.4129 43.2428 22.6568ZM46.3248 21.3453L101.92 76.9402C102.129 76.3886 102.327 75.8335 102.514 75.2753L47.9897 20.7515C47.4316 20.9377 46.8765 21.1356 46.3248 21.3453ZM49.6174 20.2442L103.021 73.6477C103.192 73.0562 103.351 72.4617 103.497 71.8648L51.4003 19.7684C50.8033 19.9141 50.2089 20.0727 49.6174 20.2442ZM53.1471 19.3803L103.885 70.1179C104.013 69.4805 104.126 68.8407 104.225 68.1991L55.0659 19.0404C54.4243 19.1392 53.7846 19.2525 53.1471 19.3803ZM56.9528 18.7924L104.473 66.3123C104.548 65.6195 104.607 64.9253 104.649 64.2302L59.0349 18.6158C58.3398 18.6579 57.6455 18.7167 56.9528 18.7924ZM61.0942 18.5402L104.725 62.1709C104.735 61.4076 104.724 60.6441 104.694 59.8813L63.3838 18.5711C62.6209 18.5406 61.8575 18.5303 61.0942 18.5402ZM65.6707 18.7231L104.542 57.5944C104.462 56.733 104.356 55.8737 104.224 55.0176L68.2475 19.0412C67.3913 18.9093 66.532 18.8032 65.6707 18.7231ZM70.8697 19.5284L103.737 52.3954C103.514 51.3755 103.255 50.3622 102.958 49.3575L73.9075 20.3075C72.9029 20.0105 71.8895 19.7508 70.8697 19.5284ZM77.1397 21.4048L101.86 46.1253C101.329 44.7433 100.724 43.3831 100.044 42.0508L81.2142 23.2206C79.882 22.5415 78.5218 21.9362 77.1397 21.4048ZM86.6535 26.5249L96.7401 36.6116C95.373 34.6978 93.8304 32.8707 92.1124 31.1527C90.3944 29.4346 88.5673 27.892 86.6535 26.5249Z" fill="url(#paint0_linear)"/>
<defs>
<linearGradient id="paint0_linear" x1="31.1964" y1="31.1527" x2="93.1811" y2="93.1374" gradientUnits="userSpaceOnUse">
<stop stop-color="white"/>
<stop offset="1" stop-color="white" stop-opacity="0"/>
</linearGradient>
</defs>
</svg>
